<svg xmlns="http://www.w3.org/2000/svg" viewBox="0 0 700 120" width="100%" height="100%">
  <defs>
    <linearGradient id="iconGradient" x1="0%" y1="0%" x2="100%" y2="100%">
      <stop offset="0%" stop-color="#66fcf1"/>
      <stop offset="100%" stop-color="#45a29e"/>
    </linearGradient>
  </defs>
  
  <!-- AI Neural Network Icon -->
  <g transform="translate(15, 15)">
    <path d="M 45 5 L 85 25 L 85 65 L 45 85 L 5 65 L 5 25 Z" fill="none" stroke="url(#iconGradient)" stroke-width="5"/>
    <circle cx="45" cy="45" r="14" fill="url(#iconGradient)"/>
    <circle cx="45" cy="5" r="6" fill="#ffffff"/>
    <circle cx="85" cy="25" r="6" fill="#ffffff"/>
    <circle cx="85" cy="65" r="6" fill="#ffffff"/>
    <circle cx="45" cy="85" r="6" fill="#ffffff"/>
    <circle cx="5" cy="65" r="6" fill="#ffffff"/>
    <circle cx="5" cy="25" r="6" fill="#ffffff"/>
    
    <line x1="45" y1="5" x2="45" y2="31" stroke="#ffffff" stroke-width="2"/>
    <line x1="85" y1="25" x2="59" y2="39" stroke="#ffffff" stroke-width="2"/>
    <line x1="85" y1="65" x2="59" y2="51" stroke="#ffffff" stroke-width="2"/>
    <line x1="45" y1="85" x2="45" y2="59" stroke="#ffffff" stroke-width="2"/>
    <line x1="5" y1="65" x2="31" y2="51" stroke="#ffffff" stroke-width="2"/>
    <line x1="5" y1="25" x2="31" y2="39" stroke="#ffffff" stroke-width="2"/>
  </g>
  
  <!-- Text -->
  <text x="130" y="70" font-family="'Inter', 'Roboto', 'Segoe UI', sans-serif" font-weight="800" font-size="52" fill="#ffffff">NextGen<tspan fill="#66fcf1">AI</tspan></text>
  <text x="135" y="100" font-family="'Inter', 'Roboto', 'Segoe UI', sans-serif" font-weight="600" font-size="15" fill="#c5c6c7" letter-spacing="4">TECHNOLOGIES SOLUTION</text>
</svg>
